<svg width="606" height="686" viewBox="0 0 606 686" fill="none" xmlns="http://www.w3.org/2000/svg">
<g filter="url(#filter0_d_535_600)">
<path d="M476.553 46.4597C480.326 48.277 480.327 53.6496 476.555 55.4683L381.812 101.147C378.493 102.747 374.641 100.329 374.64 96.6438L374.622 5.32097C374.621 1.63585 378.471 -0.783793 381.791 0.8154L476.553 46.4597Z" fill="#F97474" fill-opacity="0.25" shape-rendering="crispEdges"/>
<path d="M476.553 46.4597C480.326 48.277 480.327 53.6496 476.555 55.4683L381.812 101.147C378.493 102.747 374.641 100.329 374.64 96.6438L374.622 5.32097C374.621 1.63585 378.471 -0.783793 381.791 0.8154L476.553 46.4597Z" fill="#F97474" fill-opacity="0.25" shape-rendering="crispEdges"/>
<path d="M476.553 46.4597C480.326 48.277 480.327 53.6496 476.555 55.4683L381.812 101.147C378.493 102.747 374.641 100.329 374.64 96.6438L374.622 5.32097C374.621 1.63585 378.471 -0.783793 381.791 0.8154L476.553 46.4597Z" fill="#F97474" fill-opacity="0.25" shape-rendering="crispEdges"/>
<path d="M476.553 46.4597C480.326 48.277 480.327 53.6496 476.555 55.4683L381.812 101.147C378.493 102.747 374.641 100.329 374.64 96.6438L374.622 5.32097C374.621 1.63585 378.471 -0.783793 381.791 0.8154L476.553 46.4597Z" fill="#F97474" fill-opacity="0.25" shape-rendering="crispEdges"/>
<path d="M268.305 55.1711C264.533 53.3531 264.533 47.9806 268.305 46.1626L363.058 0.501907C366.378 -1.09786 370.229 1.32112 370.229 5.00623V96.3291C370.229 100.014 366.378 102.433 363.058 100.833L268.305 55.1711Z" fill="#F97474" fill-opacity="0.25" shape-rendering="crispEdges"/>
<path d="M268.305 55.1711C264.533 53.3531 264.533 47.9806 268.305 46.1626L363.058 0.501907C366.378 -1.09786 370.229 1.32112 370.229 5.00623V96.3291C370.229 100.014 366.378 102.433 363.058 100.833L268.305 55.1711Z" fill="#F97474" fill-opacity="0.25" shape-rendering="crispEdges"/>
<path d="M268.305 55.1711C264.533 53.3531 264.533 47.9806 268.305 46.1626L363.058 0.501907C366.378 -1.09786 370.229 1.32112 370.229 5.00623V96.3291C370.229 100.014 366.378 102.433 363.058 100.833L268.305 55.1711Z" fill="#F97474" fill-opacity="0.25" shape-rendering="crispEdges"/>
<path d="M268.305 55.1711C264.533 53.3531 264.533 47.9806 268.305 46.1626L363.058 0.501907C366.378 -1.09786 370.229 1.32112 370.229 5.00623V96.3291C370.229 100.014 366.378 102.433 363.058 100.833L268.305 55.1711Z" fill="#F97474" fill-opacity="0.25" shape-rendering="crispEdges"/>
<path d="M599.122 104.46C602.895 106.277 602.896 111.65 599.124 113.468L504.381 159.147C501.061 160.747 497.21 158.329 497.209 154.644L497.19 63.321C497.189 59.6359 501.04 57.2162 504.36 58.8154L599.122 104.46Z" fill="#F97474" fill-opacity="0.25" shape-rendering="crispEdges"/>
<path d="M599.122 104.46C602.895 106.277 602.896 111.65 599.124 113.468L504.381 159.147C501.061 160.747 497.21 158.329 497.209 154.644L497.19 63.321C497.189 59.6359 501.04 57.2162 504.36 58.8154L599.122 104.46Z" fill="#F97474" fill-opacity="0.25" shape-rendering="crispEdges"/>
<path d="M599.122 104.46C602.895 106.277 602.896 111.65 599.124 113.468L504.381 159.147C501.061 160.747 497.21 158.329 497.209 154.644L497.19 63.321C497.189 59.6359 501.04 57.2162 504.36 58.8154L599.122 104.46Z" fill="#F97474" fill-opacity="0.25" shape-rendering="crispEdges"/>
<path d="M599.122 104.46C602.895 106.277 602.896 111.65 599.124 113.468L504.381 159.147C501.061 160.747 497.21 158.329 497.209 154.644L497.19 63.321C497.189 59.6359 501.04 57.2162 504.36 58.8154L599.122 104.46Z" fill="#F97474" fill-opacity="0.25" shape-rendering="crispEdges"/>
<path d="M390.874 113.171C387.102 111.353 387.102 105.981 390.874 104.163L485.627 58.5019C488.946 56.9021 492.797 59.3211 492.797 63.0062V154.329C492.797 158.014 488.946 160.433 485.627 158.833L390.874 113.171Z" fill="#F97474" fill-opacity="0.25" shape-rendering="crispEdges"/>
<path d="M390.874 113.171C387.102 111.353 387.102 105.981 390.874 104.163L485.627 58.5019C488.946 56.9021 492.797 59.3211 492.797 63.0062V154.329C492.797 158.014 488.946 160.433 485.627 158.833L390.874 113.171Z" fill="#F97474" fill-opacity="0.25" shape-rendering="crispEdges"/>
<path d="M390.874 113.171C387.102 111.353 387.102 105.981 390.874 104.163L485.627 58.5019C488.946 56.9021 492.797 59.3211 492.797 63.0062V154.329C492.797 158.014 488.946 160.433 485.627 158.833L390.874 113.171Z" fill="#F97474" fill-opacity="0.25" shape-rendering="crispEdges"/>
<path d="M390.874 113.171C387.102 111.353 387.102 105.981 390.874 104.163L485.627 58.5019C488.946 56.9021 492.797 59.3211 492.797 63.0062V154.329C492.797 158.014 488.946 160.433 485.627 158.833L390.874 113.171Z" fill="#F97474" fill-opacity="0.25" shape-rendering="crispEdges"/>
<path d="M474.458 162.46C478.231 164.277 478.232 169.65 474.46 171.468L379.717 217.147C376.397 218.747 372.546 216.329 372.545 212.644L372.526 121.321C372.526 117.636 376.376 115.216 379.696 116.815L474.458 162.46Z" fill="#F97474" fill-opacity="0.25" shape-rendering="crispEdges"/>
<path d="M474.458 162.46C478.231 164.277 478.232 169.65 474.46 171.468L379.717 217.147C376.397 218.747 372.546 216.329 372.545 212.644L372.526 121.321C372.526 117.636 376.376 115.216 379.696 116.815L474.458 162.46Z" fill="#F97474" fill-opacity="0.25" shape-rendering="crispEdges"/>
<path d="M474.458 162.46C478.231 164.277 478.232 169.65 474.46 171.468L379.717 217.147C376.397 218.747 372.546 216.329 372.545 212.644L372.526 121.321C372.526 117.636 376.376 115.216 379.696 116.815L474.458 162.46Z" fill="#F97474" fill-opacity="0.25" shape-rendering="crispEdges"/>
<path d="M474.458 162.46C478.231 164.277 478.232 169.65 474.46 171.468L379.717 217.147C376.397 218.747 372.546 216.329 372.545 212.644L372.526 121.321C372.526 117.636 376.376 115.216 379.696 116.815L474.458 162.46Z" fill="#F97474" fill-opacity="0.25" shape-rendering="crispEdges"/>
<path d="M266.21 171.171C262.438 169.353 262.438 163.981 266.21 162.163L360.963 116.502C364.282 114.902 368.133 117.321 368.133 121.006V212.329C368.133 216.014 364.282 218.433 360.963 216.833L266.21 171.171Z" fill="#F97474" fill-opacity="0.25" shape-rendering="crispEdges"/>
<path d="M266.21 171.171C262.438 169.353 262.438 163.981 266.21 162.163L360.963 116.502C364.282 114.902 368.133 117.321 368.133 121.006V212.329C368.133 216.014 364.282 218.433 360.963 216.833L266.21 171.171Z" fill="#F97474" fill-opacity="0.25" shape-rendering="crispEdges"/>
<path d="M266.21 171.171C262.438 169.353 262.438 163.981 266.21 162.163L360.963 116.502C364.282 114.902 368.133 117.321 368.133 121.006V212.329C368.133 216.014 364.282 218.433 360.963 216.833L266.21 171.171Z" fill="#F97474" fill-opacity="0.25" shape-rendering="crispEdges"/>
<path d="M266.21 171.171C262.438 169.353 262.438 163.981 266.21 162.163L360.963 116.502C364.282 114.902 368.133 117.321 368.133 121.006V212.329C368.133 216.014 364.282 218.433 360.963 216.833L266.21 171.171Z" fill="#F97474" fill-opacity="0.25" shape-rendering="crispEdges"/>
<path d="M472.363 277.46C476.136 279.277 476.137 284.65 472.365 286.468L377.622 332.147C374.302 333.747 370.451 331.329 370.45 327.644L370.431 236.321C370.43 232.636 374.281 230.216 377.601 231.815L472.363 277.46Z" fill="#F97474" fill-opacity="0.25" shape-rendering="crispEdges"/>
<path d="M472.363 277.46C476.136 279.277 476.137 284.65 472.365 286.468L377.622 332.147C374.302 333.747 370.451 331.329 370.45 327.644L370.431 236.321C370.43 232.636 374.281 230.216 377.601 231.815L472.363 277.46Z" fill="#F97474" fill-opacity="0.25" shape-rendering="crispEdges"/>
<path d="M472.363 277.46C476.136 279.277 476.137 284.65 472.365 286.468L377.622 332.147C374.302 333.747 370.451 331.329 370.45 327.644L370.431 236.321C370.43 232.636 374.281 230.216 377.601 231.815L472.363 277.46Z" fill="#F97474" fill-opacity="0.25" shape-rendering="crispEdges"/>
<path d="M472.363 277.46C476.136 279.277 476.137 284.65 472.365 286.468L377.622 332.147C374.302 333.747 370.451 331.329 370.45 327.644L370.431 236.321C370.43 232.636 374.281 230.216 377.601 231.815L472.363 277.46Z" fill="#F97474" fill-opacity="0.25" shape-rendering="crispEdges"/>
<path d="M264.115 286.171C260.342 284.353 260.342 278.981 264.115 277.163L358.868 231.502C362.187 229.902 366.038 232.321 366.038 236.006V327.329C366.038 331.014 362.187 333.433 358.868 331.833L264.115 286.171Z" fill="#F97474" fill-opacity="0.25" shape-rendering="crispEdges"/>
<path d="M264.115 286.171C260.342 284.353 260.342 278.981 264.115 277.163L358.868 231.502C362.187 229.902 366.038 232.321 366.038 236.006V327.329C366.038 331.014 362.187 333.433 358.868 331.833L264.115 286.171Z" fill="#F97474" fill-opacity="0.25" shape-rendering="crispEdges"/>
<path d="M264.115 286.171C260.342 284.353 260.342 278.981 264.115 277.163L358.868 231.502C362.187 229.902 366.038 232.321 366.038 236.006V327.329C366.038 331.014 362.187 333.433 358.868 331.833L264.115 286.171Z" fill="#F97474" fill-opacity="0.25" shape-rendering="crispEdges"/>
<path d="M264.115 286.171C260.342 284.353 260.342 278.981 264.115 277.163L358.868 231.502C362.187 229.902 366.038 232.321 366.038 236.006V327.329C366.038 331.014 362.187 333.433 358.868 331.833L264.115 286.171Z" fill="#F97474" fill-opacity="0.25" shape-rendering="crispEdges"/>
<path d="M470.268 392.46C474.041 394.277 474.042 399.65 470.27 401.468L375.526 447.147C372.207 448.747 368.356 446.329 368.355 442.644L368.336 351.321C368.335 347.636 372.186 345.216 375.506 346.815L470.268 392.46Z" fill="#F97474" fill-opacity="0.25" shape-rendering="crispEdges"/>
<path d="M470.268 392.46C474.041 394.277 474.042 399.65 470.27 401.468L375.526 447.147C372.207 448.747 368.356 446.329 368.355 442.644L368.336 351.321C368.335 347.636 372.186 345.216 375.506 346.815L470.268 392.46Z" fill="#F97474" fill-opacity="0.25" shape-rendering="crispEdges"/>
<path d="M470.268 392.46C474.041 394.277 474.042 399.65 470.27 401.468L375.526 447.147C372.207 448.747 368.356 446.329 368.355 442.644L368.336 351.321C368.335 347.636 372.186 345.216 375.506 346.815L470.268 392.46Z" fill="#F97474" fill-opacity="0.25" shape-rendering="crispEdges"/>
<path d="M470.268 392.46C474.041 394.277 474.042 399.65 470.27 401.468L375.526 447.147C372.207 448.747 368.356 446.329 368.355 442.644L368.336 351.321C368.335 347.636 372.186 345.216 375.506 346.815L470.268 392.46Z" fill="#F97474" fill-opacity="0.25" shape-rendering="crispEdges"/>
<path d="M262.02 401.171C258.247 399.353 258.247 393.981 262.02 392.163L356.772 346.502C360.092 344.902 363.943 347.321 363.943 351.006V442.329C363.943 446.014 360.092 448.433 356.772 446.833L262.02 401.171Z" fill="#F97474" fill-opacity="0.25" shape-rendering="crispEdges"/>
<path d="M262.02 401.171C258.247 399.353 258.247 393.981 262.02 392.163L356.772 346.502C360.092 344.902 363.943 347.321 363.943 351.006V442.329C363.943 446.014 360.092 448.433 356.772 446.833L262.02 401.171Z" fill="#F97474" fill-opacity="0.25" shape-rendering="crispEdges"/>
<path d="M262.02 401.171C258.247 399.353 258.247 393.981 262.02 392.163L356.772 346.502C360.092 344.902 363.943 347.321 363.943 351.006V442.329C363.943 446.014 360.092 448.433 356.772 446.833L262.02 401.171Z" fill="#F97474" fill-opacity="0.25" shape-rendering="crispEdges"/>
<path d="M262.02 401.171C258.247 399.353 258.247 393.981 262.02 392.163L356.772 346.502C360.092 344.902 363.943 347.321 363.943 351.006V442.329C363.943 446.014 360.092 448.433 356.772 446.833L262.02 401.171Z" fill="#F97474" fill-opacity="0.25" shape-rendering="crispEdges"/>
<path d="M468.172 507.46C471.945 509.277 471.946 514.65 468.174 516.468L373.431 562.147C370.112 563.747 366.26 561.329 366.26 557.644L366.241 466.321C366.24 462.636 370.09 460.216 373.41 461.815L468.172 507.46Z" fill="#F97474" fill-opacity="0.25" shape-rendering="crispEdges"/>
<path d="M468.172 507.46C471.945 509.277 471.946 514.65 468.174 516.468L373.431 562.147C370.112 563.747 366.26 561.329 366.26 557.644L366.241 466.321C366.24 462.636 370.09 460.216 373.41 461.815L468.172 507.46Z" fill="#F97474" fill-opacity="0.25" shape-rendering="crispEdges"/>
<path d="M468.172 507.46C471.945 509.277 471.946 514.65 468.174 516.468L373.431 562.147C370.112 563.747 366.26 561.329 366.26 557.644L366.241 466.321C366.24 462.636 370.09 460.216 373.41 461.815L468.172 507.46Z" fill="#F97474" fill-opacity="0.25" shape-rendering="crispEdges"/>
<path d="M468.172 507.46C471.945 509.277 471.946 514.65 468.174 516.468L373.431 562.147C370.112 563.747 366.26 561.329 366.26 557.644L366.241 466.321C366.24 462.636 370.09 460.216 373.41 461.815L468.172 507.46Z" fill="#F97474" fill-opacity="0.25" shape-rendering="crispEdges"/>
<path d="M259.925 516.171C256.152 514.353 256.152 508.981 259.925 507.163L354.677 461.502C357.997 459.902 361.848 462.321 361.848 466.006V557.329C361.848 561.014 357.997 563.433 354.677 561.833L259.925 516.171Z" fill="#F97474" fill-opacity="0.25" shape-rendering="crispEdges"/>
<path d="M259.925 516.171C256.152 514.353 256.152 508.981 259.925 507.163L354.677 461.502C357.997 459.902 361.848 462.321 361.848 466.006V557.329C361.848 561.014 357.997 563.433 354.677 561.833L259.925 516.171Z" fill="#F97474" fill-opacity="0.25" shape-rendering="crispEdges"/>
<path d="M259.925 516.171C256.152 514.353 256.152 508.981 259.925 507.163L354.677 461.502C357.997 459.902 361.848 462.321 361.848 466.006V557.329C361.848 561.014 357.997 563.433 354.677 561.833L259.925 516.171Z" fill="#F97474" fill-opacity="0.25" shape-rendering="crispEdges"/>
<path d="M259.925 516.171C256.152 514.353 256.152 508.981 259.925 507.163L354.677 461.502C357.997 459.902 361.848 462.321 361.848 466.006V557.329C361.848 561.014 357.997 563.433 354.677 561.833L259.925 516.171Z" fill="#F97474" fill-opacity="0.25" shape-rendering="crispEdges"/>
<path d="M466.077 622.46C469.85 624.277 469.851 629.65 466.079 631.468L371.336 677.147C368.017 678.747 364.165 676.329 364.164 672.644L364.146 581.321C364.145 577.636 367.995 575.216 371.315 576.815L466.077 622.46Z" fill="#F97474" fill-opacity="0.25" shape-rendering="crispEdges"/>
<path d="M466.077 622.46C469.85 624.277 469.851 629.65 466.079 631.468L371.336 677.147C368.017 678.747 364.165 676.329 364.164 672.644L364.146 581.321C364.145 577.636 367.995 575.216 371.315 576.815L466.077 622.46Z" fill="#F97474" fill-opacity="0.25" shape-rendering="crispEdges"/>
<path d="M466.077 622.46C469.85 624.277 469.851 629.65 466.079 631.468L371.336 677.147C368.017 678.747 364.165 676.329 364.164 672.644L364.146 581.321C364.145 577.636 367.995 575.216 371.315 576.815L466.077 622.46Z" fill="#F97474" fill-opacity="0.25" shape-rendering="crispEdges"/>
<path d="M466.077 622.46C469.85 624.277 469.851 629.65 466.079 631.468L371.336 677.147C368.017 678.747 364.165 676.329 364.164 672.644L364.146 581.321C364.145 577.636 367.995 575.216 371.315 576.815L466.077 622.46Z" fill="#F97474" fill-opacity="0.25" shape-rendering="crispEdges"/>
<path d="M257.829 631.171C254.057 629.353 254.057 623.981 257.829 622.163L352.582 576.502C355.902 574.902 359.753 577.321 359.753 581.006V672.329C359.753 676.014 355.902 678.433 352.582 676.833L257.829 631.171Z" fill="#F97474" fill-opacity="0.25" shape-rendering="crispEdges"/>
<path d="M257.829 631.171C254.057 629.353 254.057 623.981 257.829 622.163L352.582 576.502C355.902 574.902 359.753 577.321 359.753 581.006V672.329C359.753 676.014 355.902 678.433 352.582 676.833L257.829 631.171Z" fill="#F97474" fill-opacity="0.25" shape-rendering="crispEdges"/>
<path d="M257.829 631.171C254.057 629.353 254.057 623.981 257.829 622.163L352.582 576.502C355.902 574.902 359.753 577.321 359.753 581.006V672.329C359.753 676.014 355.902 678.433 352.582 676.833L257.829 631.171Z" fill="#F97474" fill-opacity="0.25" shape-rendering="crispEdges"/>
<path d="M257.829 631.171C254.057 629.353 254.057 623.981 257.829 622.163L352.582 576.502C355.902 574.902 359.753 577.321 359.753 581.006V672.329C359.753 676.014 355.902 678.433 352.582 676.833L257.829 631.171Z" fill="#F97474" fill-opacity="0.25" shape-rendering="crispEdges"/>
<path d="M597.027 219.46C600.8 221.277 600.801 226.65 597.029 228.468L502.285 274.147C498.966 275.747 495.115 273.329 495.114 269.644L495.095 178.321C495.094 174.636 498.945 172.216 502.265 173.815L597.027 219.46Z" fill="#F97474" fill-opacity="0.25" shape-rendering="crispEdges"/>
<path d="M597.027 219.46C600.8 221.277 600.801 226.65 597.029 228.468L502.285 274.147C498.966 275.747 495.115 273.329 495.114 269.644L495.095 178.321C495.094 174.636 498.945 172.216 502.265 173.815L597.027 219.46Z" fill="#F97474" fill-opacity="0.25" shape-rendering="crispEdges"/>
<path d="M597.027 219.46C600.8 221.277 600.801 226.65 597.029 228.468L502.285 274.147C498.966 275.747 495.115 273.329 495.114 269.644L495.095 178.321C495.094 174.636 498.945 172.216 502.265 173.815L597.027 219.46Z" fill="#F97474" fill-opacity="0.25" shape-rendering="crispEdges"/>
<path d="M597.027 219.46C600.8 221.277 600.801 226.65 597.029 228.468L502.285 274.147C498.966 275.747 495.115 273.329 495.114 269.644L495.095 178.321C495.094 174.636 498.945 172.216 502.265 173.815L597.027 219.46Z" fill="#F97474" fill-opacity="0.25" shape-rendering="crispEdges"/>
<path d="M388.779 228.171C385.006 226.353 385.006 220.981 388.779 219.163L483.531 173.502C486.851 171.902 490.702 174.321 490.702 178.006V269.329C490.702 273.014 486.851 275.433 483.531 273.833L388.779 228.171Z" fill="#F97474" fill-opacity="0.25" shape-rendering="crispEdges"/>
<path d="M388.779 228.171C385.006 226.353 385.006 220.981 388.779 219.163L483.531 173.502C486.851 171.902 490.702 174.321 490.702 178.006V269.329C490.702 273.014 486.851 275.433 483.531 273.833L388.779 228.171Z" fill="#F97474" fill-opacity="0.25" shape-rendering="crispEdges"/>
<path d="M388.779 228.171C385.006 226.353 385.006 220.981 388.779 219.163L483.531 173.502C486.851 171.902 490.702 174.321 490.702 178.006V269.329C490.702 273.014 486.851 275.433 483.531 273.833L388.779 228.171Z" fill="#F97474" fill-opacity="0.25" shape-rendering="crispEdges"/>
<path d="M388.779 228.171C385.006 226.353 385.006 220.981 388.779 219.163L483.531 173.502C486.851 171.902 490.702 174.321 490.702 178.006V269.329C490.702 273.014 486.851 275.433 483.531 273.833L388.779 228.171Z" fill="#F97474" fill-opacity="0.25" shape-rendering="crispEdges"/>
<path d="M594.932 335.46C598.704 337.277 598.706 342.65 594.933 344.468L500.19 390.147C496.871 391.747 493.019 389.329 493.019 385.644L493 294.321C492.999 290.636 496.849 288.216 500.17 289.815L594.932 335.46Z" fill="#F97474" fill-opacity="0.25" shape-rendering="crispEdges"/>
<path d="M594.932 335.46C598.704 337.277 598.706 342.65 594.933 344.468L500.19 390.147C496.871 391.747 493.019 389.329 493.019 385.644L493 294.321C492.999 290.636 496.849 288.216 500.17 289.815L594.932 335.46Z" fill="#F97474" fill-opacity="0.25" shape-rendering="crispEdges"/>
<path d="M594.932 335.46C598.704 337.277 598.706 342.65 594.933 344.468L500.19 390.147C496.871 391.747 493.019 389.329 493.019 385.644L493 294.321C492.999 290.636 496.849 288.216 500.17 289.815L594.932 335.46Z" fill="#F97474" fill-opacity="0.25" shape-rendering="crispEdges"/>
<path d="M594.932 335.46C598.704 337.277 598.706 342.65 594.933 344.468L500.19 390.147C496.871 391.747 493.019 389.329 493.019 385.644L493 294.321C492.999 290.636 496.849 288.216 500.17 289.815L594.932 335.46Z" fill="#F97474" fill-opacity="0.25" shape-rendering="crispEdges"/>
<path d="M386.684 344.171C382.911 342.353 382.911 336.981 386.684 335.163L481.436 289.502C484.756 287.902 488.607 290.321 488.607 294.006V385.329C488.607 389.014 484.756 391.433 481.436 389.833L386.684 344.171Z" fill="#F97474" fill-opacity="0.25" shape-rendering="crispEdges"/>
<path d="M386.684 344.171C382.911 342.353 382.911 336.981 386.684 335.163L481.436 289.502C484.756 287.902 488.607 290.321 488.607 294.006V385.329C488.607 389.014 484.756 391.433 481.436 389.833L386.684 344.171Z" fill="#F97474" fill-opacity="0.25" shape-rendering="crispEdges"/>
<path d="M386.684 344.171C382.911 342.353 382.911 336.981 386.684 335.163L481.436 289.502C484.756 287.902 488.607 290.321 488.607 294.006V385.329C488.607 389.014 484.756 391.433 481.436 389.833L386.684 344.171Z" fill="#F97474" fill-opacity="0.25" shape-rendering="crispEdges"/>
<path d="M386.684 344.171C382.911 342.353 382.911 336.981 386.684 335.163L481.436 289.502C484.756 287.902 488.607 290.321 488.607 294.006V385.329C488.607 389.014 484.756 391.433 481.436 389.833L386.684 344.171Z" fill="#F97474" fill-opacity="0.25" shape-rendering="crispEdges"/>
<path d="M594.932 450.46C598.704 452.277 598.706 457.65 594.933 459.468L500.19 505.147C496.871 506.747 493.019 504.329 493.019 500.644L493 409.321C492.999 405.636 496.849 403.216 500.17 404.815L594.932 450.46Z" fill="#F97474" fill-opacity="0.25" shape-rendering="crispEdges"/>
<path d="M594.932 450.46C598.704 452.277 598.706 457.65 594.933 459.468L500.19 505.147C496.871 506.747 493.019 504.329 493.019 500.644L493 409.321C492.999 405.636 496.849 403.216 500.17 404.815L594.932 450.46Z" fill="#F97474" fill-opacity="0.25" shape-rendering="crispEdges"/>
<path d="M594.932 450.46C598.704 452.277 598.706 457.65 594.933 459.468L500.19 505.147C496.871 506.747 493.019 504.329 493.019 500.644L493 409.321C492.999 405.636 496.849 403.216 500.17 404.815L594.932 450.46Z" fill="#F97474" fill-opacity="0.25" shape-rendering="crispEdges"/>
<path d="M594.932 450.46C598.704 452.277 598.706 457.65 594.933 459.468L500.19 505.147C496.871 506.747 493.019 504.329 493.019 500.644L493 409.321C492.999 405.636 496.849 403.216 500.17 404.815L594.932 450.46Z" fill="#F97474" fill-opacity="0.25" shape-rendering="crispEdges"/>
<path d="M386.684 459.171C382.911 457.353 382.911 451.981 386.684 450.163L481.436 404.502C484.756 402.902 488.607 405.321 488.607 409.006V500.329C488.607 504.014 484.756 506.433 481.436 504.833L386.684 459.171Z" fill="#F97474" fill-opacity="0.25" shape-rendering="crispEdges"/>
<path d="M386.684 459.171C382.911 457.353 382.911 451.981 386.684 450.163L481.436 404.502C484.756 402.902 488.607 405.321 488.607 409.006V500.329C488.607 504.014 484.756 506.433 481.436 504.833L386.684 459.171Z" fill="#F97474" fill-opacity="0.25" shape-rendering="crispEdges"/>
<path d="M386.684 459.171C382.911 457.353 382.911 451.981 386.684 450.163L481.436 404.502C484.756 402.902 488.607 405.321 488.607 409.006V500.329C488.607 504.014 484.756 506.433 481.436 504.833L386.684 459.171Z" fill="#F97474" fill-opacity="0.25" shape-rendering="crispEdges"/>
<path d="M386.684 459.171C382.911 457.353 382.911 451.981 386.684 450.163L481.436 404.502C484.756 402.902 488.607 405.321 488.607 409.006V500.329C488.607 504.014 484.756 506.433 481.436 504.833L386.684 459.171Z" fill="#F97474" fill-opacity="0.25" shape-rendering="crispEdges"/>
<path d="M594.932 565.46C598.704 567.277 598.706 572.65 594.933 574.468L500.19 620.147C496.871 621.747 493.019 619.329 493.019 615.644L493 524.321C492.999 520.636 496.849 518.216 500.17 519.815L594.932 565.46Z" fill="#F97474" fill-opacity="0.25" shape-rendering="crispEdges"/>
<path d="M594.932 565.46C598.704 567.277 598.706 572.65 594.933 574.468L500.19 620.147C496.871 621.747 493.019 619.329 493.019 615.644L493 524.321C492.999 520.636 496.849 518.216 500.17 519.815L594.932 565.46Z" fill="#F97474" fill-opacity="0.25" shape-rendering="crispEdges"/>
<path d="M594.932 565.46C598.704 567.277 598.706 572.65 594.933 574.468L500.19 620.147C496.871 621.747 493.019 619.329 493.019 615.644L493 524.321C492.999 520.636 496.849 518.216 500.17 519.815L594.932 565.46Z" fill="#F97474" fill-opacity="0.25" shape-rendering="crispEdges"/>
<path d="M594.932 565.46C598.704 567.277 598.706 572.65 594.933 574.468L500.19 620.147C496.871 621.747 493.019 619.329 493.019 615.644L493 524.321C492.999 520.636 496.849 518.216 500.17 519.815L594.932 565.46Z" fill="#F97474" fill-opacity="0.25" shape-rendering="crispEdges"/>
<path d="M386.684 574.171C382.911 572.353 382.911 566.981 386.684 565.163L481.436 519.502C484.756 517.902 488.607 520.321 488.607 524.006V615.329C488.607 619.014 484.756 621.433 481.436 619.833L386.684 574.171Z" fill="#F97474" fill-opacity="0.25" shape-rendering="crispEdges"/>
<path d="M386.684 574.171C382.911 572.353 382.911 566.981 386.684 565.163L481.436 519.502C484.756 517.902 488.607 520.321 488.607 524.006V615.329C488.607 619.014 484.756 621.433 481.436 619.833L386.684 574.171Z" fill="#F97474" fill-opacity="0.25" shape-rendering="crispEdges"/>
<path d="M386.684 574.171C382.911 572.353 382.911 566.981 386.684 565.163L481.436 519.502C484.756 517.902 488.607 520.321 488.607 524.006V615.329C488.607 619.014 484.756 621.433 481.436 619.833L386.684 574.171Z" fill="#F97474" fill-opacity="0.25" shape-rendering="crispEdges"/>
<path d="M386.684 574.171C382.911 572.353 382.911 566.981 386.684 565.163L481.436 519.502C484.756 517.902 488.607 520.321 488.607 524.006V615.329C488.607 619.014 484.756 621.433 481.436 619.833L386.684 574.171Z" fill="#F97474" fill-opacity="0.25" shape-rendering="crispEdges"/>
<path d="M225.553 46.4597C229.326 48.277 229.327 53.6496 225.555 55.4683L130.812 101.147C127.493 102.747 123.641 100.329 123.64 96.6438L123.622 5.32097C123.621 1.63585 127.471 -0.783793 130.791 0.8154L225.553 46.4597Z" fill="#F97474" fill-opacity="0.25" shape-rendering="crispEdges"/>
<path d="M225.553 46.4597C229.326 48.277 229.327 53.6496 225.555 55.4683L130.812 101.147C127.493 102.747 123.641 100.329 123.64 96.6438L123.622 5.32097C123.621 1.63585 127.471 -0.783793 130.791 0.8154L225.553 46.4597Z" fill="#F97474" fill-opacity="0.25" shape-rendering="crispEdges"/>
<path d="M225.553 46.4597C229.326 48.277 229.327 53.6496 225.555 55.4683L130.812 101.147C127.493 102.747 123.641 100.329 123.64 96.6438L123.622 5.32097C123.621 1.63585 127.471 -0.783793 130.791 0.8154L225.553 46.4597Z" fill="#F97474" fill-opacity="0.25" shape-rendering="crispEdges"/>
<path d="M225.553 46.4597C229.326 48.277 229.327 53.6496 225.555 55.4683L130.812 101.147C127.493 102.747 123.641 100.329 123.64 96.6438L123.622 5.32097C123.621 1.63585 127.471 -0.783793 130.791 0.8154L225.553 46.4597Z" fill="#F97474" fill-opacity="0.25" shape-rendering="crispEdges"/>
<path d="M17.3053 55.1711C13.5328 53.3531 13.5328 47.9806 17.3053 46.1626L112.058 0.501907C115.378 -1.09786 119.229 1.32112 119.229 5.00623V96.3291C119.229 100.014 115.378 102.433 112.058 100.833L17.3053 55.1711Z" fill="#F97474" fill-opacity="0.25" shape-rendering="crispEdges"/>
<path d="M17.3053 55.1711C13.5328 53.3531 13.5328 47.9806 17.3053 46.1626L112.058 0.501907C115.378 -1.09786 119.229 1.32112 119.229 5.00623V96.3291C119.229 100.014 115.378 102.433 112.058 100.833L17.3053 55.1711Z" fill="#F97474" fill-opacity="0.25" shape-rendering="crispEdges"/>
<path d="M17.3053 55.1711C13.5328 53.3531 13.5328 47.9806 17.3053 46.1626L112.058 0.501907C115.378 -1.09786 119.229 1.32112 119.229 5.00623V96.3291C119.229 100.014 115.378 102.433 112.058 100.833L17.3053 55.1711Z" fill="#F97474" fill-opacity="0.25" shape-rendering="crispEdges"/>
<path d="M17.3053 55.1711C13.5328 53.3531 13.5328 47.9806 17.3053 46.1626L112.058 0.501907C115.378 -1.09786 119.229 1.32112 119.229 5.00623V96.3291C119.229 100.014 115.378 102.433 112.058 100.833L17.3053 55.1711Z" fill="#F97474" fill-opacity="0.25" shape-rendering="crispEdges"/>
<path d="M348.122 104.46C351.895 106.277 351.896 111.65 348.124 113.468L253.381 159.147C250.061 160.747 246.21 158.329 246.209 154.644L246.19 63.321C246.19 59.6359 250.04 57.2162 253.36 58.8154L348.122 104.46Z" fill="#F97474" fill-opacity="0.25" shape-rendering="crispEdges"/>
<path d="M348.122 104.46C351.895 106.277 351.896 111.65 348.124 113.468L253.381 159.147C250.061 160.747 246.21 158.329 246.209 154.644L246.19 63.321C246.19 59.6359 250.04 57.2162 253.36 58.8154L348.122 104.46Z" fill="#F97474" fill-opacity="0.25" shape-rendering="crispEdges"/>
<path d="M348.122 104.46C351.895 106.277 351.896 111.65 348.124 113.468L253.381 159.147C250.061 160.747 246.21 158.329 246.209 154.644L246.19 63.321C246.19 59.6359 250.04 57.2162 253.36 58.8154L348.122 104.46Z" fill="#F97474" fill-opacity="0.25" shape-rendering="crispEdges"/>
<path d="M348.122 104.46C351.895 106.277 351.896 111.65 348.124 113.468L253.381 159.147C250.061 160.747 246.21 158.329 246.209 154.644L246.19 63.321C246.19 59.6359 250.04 57.2162 253.36 58.8154L348.122 104.46Z" fill="#F97474" fill-opacity="0.25" shape-rendering="crispEdges"/>
<path d="M139.874 113.171C136.102 111.353 136.102 105.981 139.874 104.163L234.627 58.5019C237.946 56.9021 241.797 59.3211 241.797 63.0062V154.329C241.797 158.014 237.946 160.433 234.627 158.833L139.874 113.171Z" fill="#F97474" fill-opacity="0.25" shape-rendering="crispEdges"/>
<path d="M139.874 113.171C136.102 111.353 136.102 105.981 139.874 104.163L234.627 58.5019C237.946 56.9021 241.797 59.3211 241.797 63.0062V154.329C241.797 158.014 237.946 160.433 234.627 158.833L139.874 113.171Z" fill="#F97474" fill-opacity="0.25" shape-rendering="crispEdges"/>
<path d="M139.874 113.171C136.102 111.353 136.102 105.981 139.874 104.163L234.627 58.5019C237.946 56.9021 241.797 59.3211 241.797 63.0062V154.329C241.797 158.014 237.946 160.433 234.627 158.833L139.874 113.171Z" fill="#F97474" fill-opacity="0.25" shape-rendering="crispEdges"/>
<path d="M139.874 113.171C136.102 111.353 136.102 105.981 139.874 104.163L234.627 58.5019C237.946 56.9021 241.797 59.3211 241.797 63.0062V154.329C241.797 158.014 237.946 160.433 234.627 158.833L139.874 113.171Z" fill="#F97474" fill-opacity="0.25" shape-rendering="crispEdges"/>
<path d="M223.458 162.46C227.231 164.277 227.232 169.65 223.46 171.468L128.717 217.147C125.397 218.747 121.546 216.329 121.545 212.644L121.526 121.321C121.526 117.636 125.376 115.216 128.696 116.815L223.458 162.46Z" fill="#F97474" fill-opacity="0.25" shape-rendering="crispEdges"/>
<path d="M223.458 162.46C227.231 164.277 227.232 169.65 223.46 171.468L128.717 217.147C125.397 218.747 121.546 216.329 121.545 212.644L121.526 121.321C121.526 117.636 125.376 115.216 128.696 116.815L223.458 162.46Z" fill="#F97474" fill-opacity="0.25" shape-rendering="crispEdges"/>
<path d="M223.458 162.46C227.231 164.277 227.232 169.65 223.46 171.468L128.717 217.147C125.397 218.747 121.546 216.329 121.545 212.644L121.526 121.321C121.526 117.636 125.376 115.216 128.696 116.815L223.458 162.46Z" fill="#F97474" fill-opacity="0.25" shape-rendering="crispEdges"/>
<path d="M223.458 162.46C227.231 164.277 227.232 169.65 223.46 171.468L128.717 217.147C125.397 218.747 121.546 216.329 121.545 212.644L121.526 121.321C121.526 117.636 125.376 115.216 128.696 116.815L223.458 162.46Z" fill="#F97474" fill-opacity="0.25" shape-rendering="crispEdges"/>
<path d="M15.2101 171.171C11.4376 169.353 11.4376 163.981 15.2102 162.163L109.963 116.502C113.282 114.902 117.133 117.321 117.133 121.006V212.329C117.133 216.014 113.282 218.433 109.963 216.833L15.2101 171.171Z" fill="#F97474" fill-opacity="0.25" shape-rendering="crispEdges"/>
<path d="M15.2101 171.171C11.4376 169.353 11.4376 163.981 15.2102 162.163L109.963 116.502C113.282 114.902 117.133 117.321 117.133 121.006V212.329C117.133 216.014 113.282 218.433 109.963 216.833L15.2101 171.171Z" fill="#F97474" fill-opacity="0.25" shape-rendering="crispEdges"/>
<path d="M15.2101 171.171C11.4376 169.353 11.4376 163.981 15.2102 162.163L109.963 116.502C113.282 114.902 117.133 117.321 117.133 121.006V212.329C117.133 216.014 113.282 218.433 109.963 216.833L15.2101 171.171Z" fill="#F97474" fill-opacity="0.25" shape-rendering="crispEdges"/>
<path d="M15.2101 171.171C11.4376 169.353 11.4376 163.981 15.2102 162.163L109.963 116.502C113.282 114.902 117.133 117.321 117.133 121.006V212.329C117.133 216.014 113.282 218.433 109.963 216.833L15.2101 171.171Z" fill="#F97474" fill-opacity="0.25" shape-rendering="crispEdges"/>
<path d="M221.363 277.46C225.136 279.277 225.137 284.65 221.365 286.468L126.622 332.147C123.302 333.747 119.451 331.329 119.45 327.644L119.431 236.321C119.43 232.636 123.281 230.216 126.601 231.815L221.363 277.46Z" fill="#F97474" fill-opacity="0.25" shape-rendering="crispEdges"/>
<path d="M221.363 277.46C225.136 279.277 225.137 284.65 221.365 286.468L126.622 332.147C123.302 333.747 119.451 331.329 119.45 327.644L119.431 236.321C119.43 232.636 123.281 230.216 126.601 231.815L221.363 277.46Z" fill="#F97474" fill-opacity="0.25" shape-rendering="crispEdges"/>
<path d="M221.363 277.46C225.136 279.277 225.137 284.65 221.365 286.468L126.622 332.147C123.302 333.747 119.451 331.329 119.45 327.644L119.431 236.321C119.43 232.636 123.281 230.216 126.601 231.815L221.363 277.46Z" fill="#F97474" fill-opacity="0.25" shape-rendering="crispEdges"/>
<path d="M221.363 277.46C225.136 279.277 225.137 284.65 221.365 286.468L126.622 332.147C123.302 333.747 119.451 331.329 119.45 327.644L119.431 236.321C119.43 232.636 123.281 230.216 126.601 231.815L221.363 277.46Z" fill="#F97474" fill-opacity="0.25" shape-rendering="crispEdges"/>
<path d="M13.115 286.171C9.34244 284.353 9.34245 278.981 13.115 277.163L107.868 231.502C111.187 229.902 115.038 232.321 115.038 236.006V327.329C115.038 331.014 111.187 333.433 107.868 331.833L13.115 286.171Z" fill="#F97474" fill-opacity="0.25" shape-rendering="crispEdges"/>
<path d="M13.115 286.171C9.34244 284.353 9.34245 278.981 13.115 277.163L107.868 231.502C111.187 229.902 115.038 232.321 115.038 236.006V327.329C115.038 331.014 111.187 333.433 107.868 331.833L13.115 286.171Z" fill="#F97474" fill-opacity="0.25" shape-rendering="crispEdges"/>
<path d="M13.115 286.171C9.34244 284.353 9.34245 278.981 13.115 277.163L107.868 231.502C111.187 229.902 115.038 232.321 115.038 236.006V327.329C115.038 331.014 111.187 333.433 107.868 331.833L13.115 286.171Z" fill="#F97474" fill-opacity="0.25" shape-rendering="crispEdges"/>
<path d="M13.115 286.171C9.34244 284.353 9.34245 278.981 13.115 277.163L107.868 231.502C111.187 229.902 115.038 232.321 115.038 236.006V327.329C115.038 331.014 111.187 333.433 107.868 331.833L13.115 286.171Z" fill="#F97474" fill-opacity="0.25" shape-rendering="crispEdges"/>
<path d="M219.268 392.46C223.041 394.277 223.042 399.65 219.27 401.468L124.526 447.147C121.207 448.747 117.356 446.329 117.355 442.644L117.336 351.321C117.335 347.636 121.186 345.216 124.506 346.815L219.268 392.46Z" fill="#F97474" fill-opacity="0.25" shape-rendering="crispEdges"/>
<path d="M219.268 392.46C223.041 394.277 223.042 399.65 219.27 401.468L124.526 447.147C121.207 448.747 117.356 446.329 117.355 442.644L117.336 351.321C117.335 347.636 121.186 345.216 124.506 346.815L219.268 392.46Z" fill="#F97474" fill-opacity="0.25" shape-rendering="crispEdges"/>
<path d="M219.268 392.46C223.041 394.277 223.042 399.65 219.27 401.468L124.526 447.147C121.207 448.747 117.356 446.329 117.355 442.644L117.336 351.321C117.335 347.636 121.186 345.216 124.506 346.815L219.268 392.46Z" fill="#F97474" fill-opacity="0.25" shape-rendering="crispEdges"/>
<path d="M219.268 392.46C223.041 394.277 223.042 399.65 219.27 401.468L124.526 447.147C121.207 448.747 117.356 446.329 117.355 442.644L117.336 351.321C117.335 347.636 121.186 345.216 124.506 346.815L219.268 392.46Z" fill="#F97474" fill-opacity="0.25" shape-rendering="crispEdges"/>
<path d="M11.0198 401.171C7.24725 399.353 7.24726 393.981 11.0198 392.163L105.772 346.502C109.092 344.902 112.943 347.321 112.943 351.006V442.329C112.943 446.014 109.092 448.433 105.772 446.833L11.0198 401.171Z" fill="#F97474" fill-opacity="0.25" shape-rendering="crispEdges"/>
<path d="M11.0198 401.171C7.24725 399.353 7.24726 393.981 11.0198 392.163L105.772 346.502C109.092 344.902 112.943 347.321 112.943 351.006V442.329C112.943 446.014 109.092 448.433 105.772 446.833L11.0198 401.171Z" fill="#F97474" fill-opacity="0.25" shape-rendering="crispEdges"/>
<path d="M11.0198 401.171C7.24725 399.353 7.24726 393.981 11.0198 392.163L105.772 346.502C109.092 344.902 112.943 347.321 112.943 351.006V442.329C112.943 446.014 109.092 448.433 105.772 446.833L11.0198 401.171Z" fill="#F97474" fill-opacity="0.25" shape-rendering="crispEdges"/>
<path d="M11.0198 401.171C7.24725 399.353 7.24726 393.981 11.0198 392.163L105.772 346.502C109.092 344.902 112.943 347.321 112.943 351.006V442.329C112.943 446.014 109.092 448.433 105.772 446.833L11.0198 401.171Z" fill="#F97474" fill-opacity="0.25" shape-rendering="crispEdges"/>
<path d="M217.173 507.46C220.945 509.277 220.946 514.65 217.174 516.468L122.431 562.147C119.112 563.747 115.26 561.329 115.26 557.644L115.241 466.321C115.24 462.636 119.09 460.216 122.41 461.815L217.173 507.46Z" fill="#F97474" fill-opacity="0.25" shape-rendering="crispEdges"/>
<path d="M217.173 507.46C220.945 509.277 220.946 514.65 217.174 516.468L122.431 562.147C119.112 563.747 115.26 561.329 115.26 557.644L115.241 466.321C115.24 462.636 119.09 460.216 122.41 461.815L217.173 507.46Z" fill="#F97474" fill-opacity="0.25" shape-rendering="crispEdges"/>
<path d="M217.173 507.46C220.945 509.277 220.946 514.65 217.174 516.468L122.431 562.147C119.112 563.747 115.26 561.329 115.26 557.644L115.241 466.321C115.24 462.636 119.09 460.216 122.41 461.815L217.173 507.46Z" fill="#F97474" fill-opacity="0.25" shape-rendering="crispEdges"/>
<path d="M217.173 507.46C220.945 509.277 220.946 514.65 217.174 516.468L122.431 562.147C119.112 563.747 115.26 561.329 115.26 557.644L115.241 466.321C115.24 462.636 119.09 460.216 122.41 461.815L217.173 507.46Z" fill="#F97474" fill-opacity="0.25" shape-rendering="crispEdges"/>
<path d="M8.92457 516.171C5.15206 514.353 5.15207 508.981 8.92458 507.163L103.677 461.502C106.997 459.902 110.848 462.321 110.848 466.006V557.329C110.848 561.014 106.997 563.433 103.677 561.833L8.92457 516.171Z" fill="#F97474" fill-opacity="0.25" shape-rendering="crispEdges"/>
<path d="M8.92457 516.171C5.15206 514.353 5.15207 508.981 8.92458 507.163L103.677 461.502C106.997 459.902 110.848 462.321 110.848 466.006V557.329C110.848 561.014 106.997 563.433 103.677 561.833L8.92457 516.171Z" fill="#F97474" fill-opacity="0.25" shape-rendering="crispEdges"/>
<path d="M8.92457 516.171C5.15206 514.353 5.15207 508.981 8.92458 507.163L103.677 461.502C106.997 459.902 110.848 462.321 110.848 466.006V557.329C110.848 561.014 106.997 563.433 103.677 561.833L8.92457 516.171Z" fill="#F97474" fill-opacity="0.25" shape-rendering="crispEdges"/>
<path d="M8.92457 516.171C5.15206 514.353 5.15207 508.981 8.92458 507.163L103.677 461.502C106.997 459.902 110.848 462.321 110.848 466.006V557.329C110.848 561.014 106.997 563.433 103.677 561.833L8.92457 516.171Z" fill="#F97474" fill-opacity="0.25" shape-rendering="crispEdges"/>
<path d="M215.077 622.46C218.85 624.277 218.851 629.65 215.079 631.468L120.336 677.147C117.017 678.747 113.165 676.329 113.164 672.644L113.146 581.321C113.145 577.636 116.995 575.216 120.315 576.815L215.077 622.46Z" fill="#F97474" fill-opacity="0.25" shape-rendering="crispEdges"/>
<path d="M215.077 622.46C218.85 624.277 218.851 629.65 215.079 631.468L120.336 677.147C117.017 678.747 113.165 676.329 113.164 672.644L113.146 581.321C113.145 577.636 116.995 575.216 120.315 576.815L215.077 622.46Z" fill="#F97474" fill-opacity="0.25" shape-rendering="crispEdges"/>
<path d="M215.077 622.46C218.85 624.277 218.851 629.65 215.079 631.468L120.336 677.147C117.017 678.747 113.165 676.329 113.164 672.644L113.146 581.321C113.145 577.636 116.995 575.216 120.315 576.815L215.077 622.46Z" fill="#F97474" fill-opacity="0.25" shape-rendering="crispEdges"/>
<path d="M215.077 622.46C218.85 624.277 218.851 629.65 215.079 631.468L120.336 677.147C117.017 678.747 113.165 676.329 113.164 672.644L113.146 581.321C113.145 577.636 116.995 575.216 120.315 576.815L215.077 622.46Z" fill="#F97474" fill-opacity="0.25" shape-rendering="crispEdges"/>
<path d="M6.82938 631.171C3.05687 629.353 3.05688 623.981 6.82939 622.163L101.582 576.502C104.902 574.902 108.753 577.321 108.753 581.006V672.329C108.753 676.014 104.902 678.433 101.582 676.833L6.82938 631.171Z" fill="#F97474" fill-opacity="0.25" shape-rendering="crispEdges"/>
<path d="M6.82938 631.171C3.05687 629.353 3.05688 623.981 6.82939 622.163L101.582 576.502C104.902 574.902 108.753 577.321 108.753 581.006V672.329C108.753 676.014 104.902 678.433 101.582 676.833L6.82938 631.171Z" fill="#F97474" fill-opacity="0.25" shape-rendering="crispEdges"/>
<path d="M6.82938 631.171C3.05687 629.353 3.05688 623.981 6.82939 622.163L101.582 576.502C104.902 574.902 108.753 577.321 108.753 581.006V672.329C108.753 676.014 104.902 678.433 101.582 676.833L6.82938 631.171Z" fill="#F97474" fill-opacity="0.25" shape-rendering="crispEdges"/>
<path d="M6.82938 631.171C3.05687 629.353 3.05688 623.981 6.82939 622.163L101.582 576.502C104.902 574.902 108.753 577.321 108.753 581.006V672.329C108.753 676.014 104.902 678.433 101.582 676.833L6.82938 631.171Z" fill="#F97474" fill-opacity="0.25" shape-rendering="crispEdges"/>
<path d="M346.027 219.46C349.8 221.277 349.801 226.65 346.029 228.468L251.285 274.147C247.966 275.747 244.115 273.329 244.114 269.644L244.095 178.321C244.094 174.636 247.945 172.216 251.265 173.815L346.027 219.46Z" fill="#F97474" fill-opacity="0.25" shape-rendering="crispEdges"/>
<path d="M346.027 219.46C349.8 221.277 349.801 226.65 346.029 228.468L251.285 274.147C247.966 275.747 244.115 273.329 244.114 269.644L244.095 178.321C244.094 174.636 247.945 172.216 251.265 173.815L346.027 219.46Z" fill="#F97474" fill-opacity="0.25" shape-rendering="crispEdges"/>
<path d="M346.027 219.46C349.8 221.277 349.801 226.65 346.029 228.468L251.285 274.147C247.966 275.747 244.115 273.329 244.114 269.644L244.095 178.321C244.094 174.636 247.945 172.216 251.265 173.815L346.027 219.46Z" fill="#F97474" fill-opacity="0.25" shape-rendering="crispEdges"/>
<path d="M346.027 219.46C349.8 221.277 349.801 226.65 346.029 228.468L251.285 274.147C247.966 275.747 244.115 273.329 244.114 269.644L244.095 178.321C244.094 174.636 247.945 172.216 251.265 173.815L346.027 219.46Z" fill="#F97474" fill-opacity="0.25" shape-rendering="crispEdges"/>
<path d="M137.779 228.171C134.006 226.353 134.006 220.981 137.779 219.163L232.531 173.502C235.851 171.902 239.702 174.321 239.702 178.006V269.329C239.702 273.014 235.851 275.433 232.531 273.833L137.779 228.171Z" fill="#F97474" fill-opacity="0.25" shape-rendering="crispEdges"/>
<path d="M137.779 228.171C134.006 226.353 134.006 220.981 137.779 219.163L232.531 173.502C235.851 171.902 239.702 174.321 239.702 178.006V269.329C239.702 273.014 235.851 275.433 232.531 273.833L137.779 228.171Z" fill="#F97474" fill-opacity="0.25" shape-rendering="crispEdges"/>
<path d="M137.779 228.171C134.006 226.353 134.006 220.981 137.779 219.163L232.531 173.502C235.851 171.902 239.702 174.321 239.702 178.006V269.329C239.702 273.014 235.851 275.433 232.531 273.833L137.779 228.171Z" fill="#F97474" fill-opacity="0.25" shape-rendering="crispEdges"/>
<path d="M137.779 228.171C134.006 226.353 134.006 220.981 137.779 219.163L232.531 173.502C235.851 171.902 239.702 174.321 239.702 178.006V269.329C239.702 273.014 235.851 275.433 232.531 273.833L137.779 228.171Z" fill="#F97474" fill-opacity="0.25" shape-rendering="crispEdges"/>
<path d="M343.932 335.46C347.704 337.277 347.706 342.65 343.933 344.468L249.19 390.147C245.871 391.747 242.019 389.329 242.019 385.644L242 294.321C241.999 290.636 245.849 288.216 249.17 289.815L343.932 335.46Z" fill="#F97474" fill-opacity="0.25" shape-rendering="crispEdges"/>
<path d="M343.932 335.46C347.704 337.277 347.706 342.65 343.933 344.468L249.19 390.147C245.871 391.747 242.019 389.329 242.019 385.644L242 294.321C241.999 290.636 245.849 288.216 249.17 289.815L343.932 335.46Z" fill="#F97474" fill-opacity="0.25" shape-rendering="crispEdges"/>
<path d="M343.932 335.46C347.704 337.277 347.706 342.65 343.933 344.468L249.19 390.147C245.871 391.747 242.019 389.329 242.019 385.644L242 294.321C241.999 290.636 245.849 288.216 249.17 289.815L343.932 335.46Z" fill="#F97474" fill-opacity="0.25" shape-rendering="crispEdges"/>
<path d="M343.932 335.46C347.704 337.277 347.706 342.65 343.933 344.468L249.19 390.147C245.871 391.747 242.019 389.329 242.019 385.644L242 294.321C241.999 290.636 245.849 288.216 249.17 289.815L343.932 335.46Z" fill="#F97474" fill-opacity="0.25" shape-rendering="crispEdges"/>
<path d="M135.684 344.171C131.911 342.353 131.911 336.981 135.684 335.163L230.436 289.502C233.756 287.902 237.607 290.321 237.607 294.006V385.329C237.607 389.014 233.756 391.433 230.436 389.833L135.684 344.171Z" fill="#F97474" fill-opacity="0.25" shape-rendering="crispEdges"/>
<path d="M135.684 344.171C131.911 342.353 131.911 336.981 135.684 335.163L230.436 289.502C233.756 287.902 237.607 290.321 237.607 294.006V385.329C237.607 389.014 233.756 391.433 230.436 389.833L135.684 344.171Z" fill="#F97474" fill-opacity="0.25" shape-rendering="crispEdges"/>
<path d="M135.684 344.171C131.911 342.353 131.911 336.981 135.684 335.163L230.436 289.502C233.756 287.902 237.607 290.321 237.607 294.006V385.329C237.607 389.014 233.756 391.433 230.436 389.833L135.684 344.171Z" fill="#F97474" fill-opacity="0.25" shape-rendering="crispEdges"/>
<path d="M135.684 344.171C131.911 342.353 131.911 336.981 135.684 335.163L230.436 289.502C233.756 287.902 237.607 290.321 237.607 294.006V385.329C237.607 389.014 233.756 391.433 230.436 389.833L135.684 344.171Z" fill="#F97474" fill-opacity="0.25" shape-rendering="crispEdges"/>
<path d="M343.932 450.46C347.704 452.277 347.706 457.65 343.933 459.468L249.19 505.147C245.871 506.747 242.019 504.329 242.019 500.644L242 409.321C241.999 405.636 245.849 403.216 249.17 404.815L343.932 450.46Z" fill="#F97474" fill-opacity="0.25" shape-rendering="crispEdges"/>
<path d="M343.932 450.46C347.704 452.277 347.706 457.65 343.933 459.468L249.19 505.147C245.871 506.747 242.019 504.329 242.019 500.644L242 409.321C241.999 405.636 245.849 403.216 249.17 404.815L343.932 450.46Z" fill="#F97474" fill-opacity="0.25" shape-rendering="crispEdges"/>
<path d="M343.932 450.46C347.704 452.277 347.706 457.65 343.933 459.468L249.19 505.147C245.871 506.747 242.019 504.329 242.019 500.644L242 409.321C241.999 405.636 245.849 403.216 249.17 404.815L343.932 450.46Z" fill="#F97474" fill-opacity="0.25" shape-rendering="crispEdges"/>
<path d="M343.932 450.46C347.704 452.277 347.706 457.65 343.933 459.468L249.19 505.147C245.871 506.747 242.019 504.329 242.019 500.644L242 409.321C241.999 405.636 245.849 403.216 249.17 404.815L343.932 450.46Z" fill="#F97474" fill-opacity="0.25" shape-rendering="crispEdges"/>
<path d="M135.684 459.171C131.911 457.353 131.911 451.981 135.684 450.163L230.436 404.502C233.756 402.902 237.607 405.321 237.607 409.006V500.329C237.607 504.014 233.756 506.433 230.436 504.833L135.684 459.171Z" fill="#F97474" fill-opacity="0.25" shape-rendering="crispEdges"/>
<path d="M135.684 459.171C131.911 457.353 131.911 451.981 135.684 450.163L230.436 404.502C233.756 402.902 237.607 405.321 237.607 409.006V500.329C237.607 504.014 233.756 506.433 230.436 504.833L135.684 459.171Z" fill="#F97474" fill-opacity="0.25" shape-rendering="crispEdges"/>
<path d="M135.684 459.171C131.911 457.353 131.911 451.981 135.684 450.163L230.436 404.502C233.756 402.902 237.607 405.321 237.607 409.006V500.329C237.607 504.014 233.756 506.433 230.436 504.833L135.684 459.171Z" fill="#F97474" fill-opacity="0.25" shape-rendering="crispEdges"/>
<path d="M135.684 459.171C131.911 457.353 131.911 451.981 135.684 450.163L230.436 404.502C233.756 402.902 237.607 405.321 237.607 409.006V500.329C237.607 504.014 233.756 506.433 230.436 504.833L135.684 459.171Z" fill="#F97474" fill-opacity="0.25" shape-rendering="crispEdges"/>
<path d="M343.932 565.46C347.704 567.277 347.706 572.65 343.933 574.468L249.19 620.147C245.871 621.747 242.019 619.329 242.019 615.644L242 524.321C241.999 520.636 245.849 518.216 249.17 519.815L343.932 565.46Z" fill="#F97474" fill-opacity="0.25" shape-rendering="crispEdges"/>
<path d="M343.932 565.46C347.704 567.277 347.706 572.65 343.933 574.468L249.19 620.147C245.871 621.747 242.019 619.329 242.019 615.644L242 524.321C241.999 520.636 245.849 518.216 249.17 519.815L343.932 565.46Z" fill="#F97474" fill-opacity="0.25" shape-rendering="crispEdges"/>
<path d="M343.932 565.46C347.704 567.277 347.706 572.65 343.933 574.468L249.19 620.147C245.871 621.747 242.019 619.329 242.019 615.644L242 524.321C241.999 520.636 245.849 518.216 249.17 519.815L343.932 565.46Z" fill="#F97474" fill-opacity="0.25" shape-rendering="crispEdges"/>
<path d="M343.932 565.46C347.704 567.277 347.706 572.65 343.933 574.468L249.19 620.147C245.871 621.747 242.019 619.329 242.019 615.644L242 524.321C241.999 520.636 245.849 518.216 249.17 519.815L343.932 565.46Z" fill="#F97474" fill-opacity="0.25" shape-rendering="crispEdges"/>
<path d="M135.684 574.171C131.911 572.353 131.911 566.981 135.684 565.163L230.436 519.502C233.756 517.902 237.607 520.321 237.607 524.006V615.329C237.607 619.014 233.756 621.433 230.436 619.833L135.684 574.171Z" fill="#F97474" fill-opacity="0.25" shape-rendering="crispEdges"/>
<path d="M135.684 574.171C131.911 572.353 131.911 566.981 135.684 565.163L230.436 519.502C233.756 517.902 237.607 520.321 237.607 524.006V615.329C237.607 619.014 233.756 621.433 230.436 619.833L135.684 574.171Z" fill="#F97474" fill-opacity="0.25" shape-rendering="crispEdges"/>
<path d="M135.684 574.171C131.911 572.353 131.911 566.981 135.684 565.163L230.436 519.502C233.756 517.902 237.607 520.321 237.607 524.006V615.329C237.607 619.014 233.756 621.433 230.436 619.833L135.684 574.171Z" fill="#F97474" fill-opacity="0.25" shape-rendering="crispEdges"/>
<path d="M135.684 574.171C131.911 572.353 131.911 566.981 135.684 565.163L230.436 519.502C233.756 517.902 237.607 520.321 237.607 524.006V615.329C237.607 619.014 233.756 621.433 230.436 619.833L135.684 574.171Z" fill="#F97474" fill-opacity="0.25" shape-rendering="crispEdges"/>
</g>
<defs>
<filter id="filter0_d_535_600" x="0" y="0" width="605.952" height="685.649" filterUnits="userSpaceOnUse" color-interpolation-filters="sRGB">
<feFlood flood-opacity="0" result="BackgroundImageFix"/>
<feColorMatrix in="SourceAlpha" type="matrix" values="0 0 0 0 0 0 0 0 0 0 0 0 0 0 0 0 0 0 127 0" result="hardAlpha"/>
<feOffset dy="4"/>
<feGaussianBlur stdDeviation="2"/>
<feComposite in2="hardAlpha" operator="out"/>
<feColorMatrix type="matrix" values="0 0 0 0 0 0 0 0 0 0 0 0 0 0 0 0 0 0 0.15 0"/>
<feBlend mode="normal" in2="BackgroundImageFix" result="effect1_dropShadow_535_600"/>
<feBlend mode="normal" in="SourceGraphic" in2="effect1_dropShadow_535_600" result="shape"/>
</filter>
</defs>
</svg>
