<svg xmlns="http://www.w3.org/2000/svg" width="607" height="687" viewBox="0 0 607 687" fill="none">
  <g filter="url(#filter0_d_262_2575)">
    <path d="M477.071 47.4138C480.844 49.2311 480.845 54.6037 477.073 56.4224L382.329 102.101C379.01 103.701 375.159 101.283 375.158 97.5979L375.139 6.27507C375.138 2.58996 378.989 0.170308 382.309 1.7695L477.071 47.4138Z" fill="#E0E0E0" fill-opacity="0.67" shape-rendering="crispEdges"/>
    <path d="M268.823 56.1252C265.05 54.3072 265.05 48.9347 268.823 47.1167L363.575 1.45601C366.895 -0.143758 370.746 2.27522 370.746 5.96033V97.2832C370.746 100.968 366.895 103.387 363.575 101.787L268.823 56.1252Z" fill="#E0E0E0" fill-opacity="0.67" shape-rendering="crispEdges"/>
    <path d="M599.639 105.414C603.412 107.231 603.413 112.604 599.641 114.422L504.898 160.101C501.579 161.701 497.727 159.283 497.727 155.598L497.708 64.2751C497.707 60.59 501.557 58.1703 504.877 59.7695L599.639 105.414Z" fill="#E0E0E0" fill-opacity="0.67" shape-rendering="crispEdges"/>
    <path d="M391.391 114.125C387.619 112.307 387.619 106.935 391.391 105.117L486.144 59.456C489.464 57.8562 493.315 60.2752 493.315 63.9603V155.283C493.315 158.968 489.464 161.387 486.144 159.787L391.391 114.125Z" fill="#E0E0E0" fill-opacity="0.67" shape-rendering="crispEdges"/>
    <path d="M474.976 163.414C478.748 165.231 478.75 170.604 474.977 172.422L380.234 218.101C376.915 219.701 373.063 217.283 373.063 213.598L373.044 122.275C373.043 118.59 376.893 116.17 380.214 117.77L474.976 163.414Z" fill="#E0E0E0" fill-opacity="0.67" shape-rendering="crispEdges"/>
    <path d="M266.728 172.125C262.955 170.307 262.955 164.935 266.728 163.117L361.48 117.456C364.8 115.856 368.651 118.275 368.651 121.96V213.283C368.651 216.968 364.8 219.387 361.48 217.787L266.728 172.125Z" fill="#E0E0E0" fill-opacity="0.67" shape-rendering="crispEdges"/>
    <path d="M472.88 278.414C476.653 280.231 476.654 285.604 472.882 287.422L378.139 333.101C374.82 334.701 370.968 332.283 370.968 328.598L370.949 237.275C370.948 233.59 374.798 231.17 378.118 232.77L472.88 278.414Z" fill="#E0E0E0" fill-opacity="0.67" shape-rendering="crispEdges"/>
    <path d="M264.632 287.125C260.86 285.307 260.86 279.935 264.632 278.117L359.385 232.456C362.705 230.856 366.556 233.275 366.556 236.96V328.283C366.556 331.968 362.705 334.387 359.385 332.787L264.632 287.125Z" fill="#E0E0E0" fill-opacity="0.67" shape-rendering="crispEdges"/>
    <path d="M470.785 393.414C474.558 395.231 474.559 400.604 470.787 402.422L376.044 448.101C372.724 449.701 368.873 447.283 368.872 443.598L368.853 352.275C368.853 348.59 372.703 346.17 376.023 347.77L470.785 393.414Z" fill="#E0E0E0" fill-opacity="0.67" shape-rendering="crispEdges"/>
    <path d="M262.537 402.125C258.765 400.307 258.765 394.935 262.537 393.117L357.29 347.456C360.61 345.856 364.46 348.275 364.46 351.96V443.283C364.46 446.968 360.61 449.387 357.29 447.787L262.537 402.125Z" fill="#E0E0E0" fill-opacity="0.67" shape-rendering="crispEdges"/>
    <path d="M468.69 508.414C472.463 510.231 472.464 515.604 468.692 517.422L373.949 563.101C370.629 564.701 366.778 562.283 366.777 558.598L366.758 467.275C366.757 463.59 370.608 461.17 373.928 462.77L468.69 508.414Z" fill="#E0E0E0" fill-opacity="0.67" shape-rendering="crispEdges"/>
    <path d="M260.442 517.125C256.67 515.307 256.67 509.935 260.442 508.117L355.195 462.456C358.514 460.856 362.365 463.275 362.365 466.96V558.283C362.365 561.968 358.514 564.387 355.195 562.787L260.442 517.125Z" fill="#E0E0E0" fill-opacity="0.67" shape-rendering="crispEdges"/>
    <path d="M466.595 623.414C470.368 625.231 470.369 630.604 466.597 632.422L371.853 678.101C368.534 679.701 364.683 677.283 364.682 673.598L364.663 582.275C364.662 578.59 368.513 576.17 371.833 577.77L466.595 623.414Z" fill="#E0E0E0" fill-opacity="0.67" shape-rendering="crispEdges"/>
    <path d="M258.347 632.125C254.574 630.307 254.574 624.935 258.347 623.117L353.099 577.456C356.419 575.856 360.27 578.275 360.27 581.96V673.283C360.27 676.968 356.419 679.387 353.099 677.787L258.347 632.125Z" fill="#E0E0E0" fill-opacity="0.67" shape-rendering="crispEdges"/>
    <path d="M597.544 220.414C601.317 222.231 601.318 227.604 597.546 229.422L502.803 275.101C499.483 276.701 495.632 274.283 495.631 270.598L495.613 179.275C495.612 175.59 499.462 173.17 502.782 174.77L597.544 220.414Z" fill="#E0E0E0" fill-opacity="0.67" shape-rendering="crispEdges"/>
    <path d="M389.296 229.125C385.524 227.307 385.524 221.935 389.296 220.117L484.049 174.456C487.369 172.856 491.219 175.275 491.219 178.96V270.283C491.219 273.968 487.369 276.387 484.049 274.787L389.296 229.125Z" fill="#E0E0E0" fill-opacity="0.67" shape-rendering="crispEdges"/>
    <path d="M595.449 336.414C599.222 338.231 599.223 343.604 595.451 345.422L500.708 391.101C497.388 392.701 493.537 390.283 493.536 386.598L493.517 295.275C493.517 291.59 497.367 289.17 500.687 290.77L595.449 336.414Z" fill="#E0E0E0" fill-opacity="0.67" shape-rendering="crispEdges"/>
    <path d="M387.201 345.125C383.429 343.307 383.429 337.935 387.201 336.117L481.954 290.456C485.273 288.856 489.124 291.275 489.124 294.96V386.283C489.124 389.968 485.273 392.387 481.954 390.787L387.201 345.125Z" fill="#E0E0E0" fill-opacity="0.67" shape-rendering="crispEdges"/>
    <path d="M595.449 451.414C599.222 453.231 599.223 458.604 595.451 460.422L500.708 506.101C497.388 507.701 493.537 505.283 493.536 501.598L493.517 410.275C493.517 406.59 497.367 404.17 500.687 405.77L595.449 451.414Z" fill="#E0E0E0" fill-opacity="0.67" shape-rendering="crispEdges"/>
    <path d="M387.201 460.125C383.429 458.307 383.429 452.935 387.201 451.117L481.954 405.456C485.273 403.856 489.124 406.275 489.124 409.96V501.283C489.124 504.968 485.273 507.387 481.954 505.787L387.201 460.125Z" fill="#E0E0E0" fill-opacity="0.67" shape-rendering="crispEdges"/>
    <path d="M595.449 566.414C599.222 568.231 599.223 573.604 595.451 575.422L500.708 621.101C497.388 622.701 493.537 620.283 493.536 616.598L493.517 525.275C493.517 521.59 497.367 519.17 500.687 520.77L595.449 566.414Z" fill="#E0E0E0" fill-opacity="0.67" shape-rendering="crispEdges"/>
    <path d="M387.201 575.125C383.429 573.307 383.429 567.935 387.201 566.117L481.954 520.456C485.273 518.856 489.124 521.275 489.124 524.96V616.283C489.124 619.968 485.273 622.387 481.954 620.787L387.201 575.125Z" fill="#E0E0E0" fill-opacity="0.67" shape-rendering="crispEdges"/>
    <path d="M226.071 47.4138C229.844 49.2311 229.845 54.6037 226.073 56.4224L131.329 102.101C128.01 103.701 124.159 101.283 124.158 97.5979L124.139 6.27507C124.138 2.58996 127.989 0.170308 131.309 1.7695L226.071 47.4138Z" fill="#E0E0E0" fill-opacity="0.67" shape-rendering="crispEdges"/>
    <path d="M17.8228 56.1252C14.0503 54.3072 14.0503 48.9347 17.8228 47.1167L112.575 1.45601C115.895 -0.143758 119.746 2.27522 119.746 5.96033V97.2832C119.746 100.968 115.895 103.387 112.575 101.787L17.8228 56.1252Z" fill="#E0E0E0" fill-opacity="0.67" shape-rendering="crispEdges"/>
    <path d="M348.639 105.414C352.412 107.231 352.413 112.604 348.641 114.422L253.898 160.101C250.579 161.701 246.727 159.283 246.727 155.598L246.708 64.2751C246.707 60.59 250.557 58.1703 253.877 59.7695L348.639 105.414Z" fill="#E0E0E0" fill-opacity="0.67" shape-rendering="crispEdges"/>
    <path d="M140.391 114.125C136.619 112.307 136.619 106.935 140.392 105.117L235.144 59.456C238.464 57.8562 242.315 60.2752 242.315 63.9603V155.283C242.315 158.968 238.464 161.387 235.144 159.787L140.391 114.125Z" fill="#E0E0E0" fill-opacity="0.67" shape-rendering="crispEdges"/>
    <path d="M223.976 163.414C227.748 165.231 227.75 170.604 223.977 172.422L129.234 218.101C125.915 219.701 122.063 217.283 122.063 213.598L122.044 122.275C122.043 118.59 125.893 116.17 129.214 117.77L223.976 163.414Z" fill="#E0E0E0" fill-opacity="0.67" shape-rendering="crispEdges"/>
    <path d="M15.7276 172.125C11.9551 170.307 11.9551 164.935 15.7276 163.117L110.48 117.456C113.8 115.856 117.651 118.275 117.651 121.96V213.283C117.651 216.968 113.8 219.387 110.48 217.787L15.7276 172.125Z" fill="#E0E0E0" fill-opacity="0.67" shape-rendering="crispEdges"/>
    <path d="M221.88 278.414C225.653 280.231 225.654 285.604 221.882 287.422L127.139 333.101C123.82 334.701 119.968 332.283 119.967 328.598L119.949 237.275C119.948 233.59 123.798 231.17 127.118 232.77L221.88 278.414Z" fill="#E0E0E0" fill-opacity="0.67" shape-rendering="crispEdges"/>
    <path d="M13.6324 287.125C9.85991 285.307 9.85992 279.935 13.6324 278.117L108.385 232.456C111.705 230.856 115.556 233.275 115.556 236.96V328.283C115.556 331.968 111.705 334.387 108.385 332.787L13.6324 287.125Z" fill="#E0E0E0" fill-opacity="0.67" shape-rendering="crispEdges"/>
    <path d="M219.785 393.414C223.558 395.231 223.559 400.604 219.787 402.422L125.044 448.101C121.724 449.701 117.873 447.283 117.872 443.598L117.853 352.275C117.853 348.59 121.703 346.17 125.023 347.77L219.785 393.414Z" fill="#E0E0E0" fill-opacity="0.67" shape-rendering="crispEdges"/>
    <path d="M11.5372 402.125C7.76472 400.307 7.76473 394.935 11.5372 393.117L106.29 347.456C109.61 345.856 113.46 348.275 113.46 351.96V443.283C113.46 446.968 109.61 449.387 106.29 447.787L11.5372 402.125Z" fill="#E0E0E0" fill-opacity="0.67" shape-rendering="crispEdges"/>
    <path d="M217.69 508.414C221.463 510.231 221.464 515.604 217.692 517.422L122.949 563.101C119.629 564.701 115.778 562.283 115.777 558.598L115.758 467.275C115.758 463.59 119.608 461.17 122.928 462.77L217.69 508.414Z" fill="#E0E0E0" fill-opacity="0.67" shape-rendering="crispEdges"/>
    <path d="M9.44204 517.125C5.66953 515.307 5.66954 509.935 9.44205 508.117L104.195 462.456C107.514 460.856 111.365 463.275 111.365 466.96V558.283C111.365 561.968 107.514 564.387 104.195 562.787L9.44204 517.125Z" fill="#E0E0E0" fill-opacity="0.67" shape-rendering="crispEdges"/>
    <path d="M215.595 623.414C219.368 625.231 219.369 630.604 215.597 632.422L120.853 678.101C117.534 679.701 113.683 677.283 113.682 673.598L113.663 582.275C113.662 578.59 117.513 576.17 120.833 577.77L215.595 623.414Z" fill="#E0E0E0" fill-opacity="0.67" shape-rendering="crispEdges"/>
    <path d="M7.34685 632.125C3.57434 630.307 3.57435 624.935 7.34686 623.117L102.099 577.456C105.419 575.856 109.27 578.275 109.27 581.96V673.283C109.27 676.968 105.419 679.387 102.099 677.787L7.34685 632.125Z" fill="#E0E0E0" fill-opacity="0.67" shape-rendering="crispEdges"/>
    <path d="M346.544 220.414C350.317 222.231 350.318 227.604 346.546 229.422L251.803 275.101C248.483 276.701 244.632 274.283 244.631 270.598L244.613 179.275C244.612 175.59 248.462 173.17 251.782 174.77L346.544 220.414Z" fill="#E0E0E0" fill-opacity="0.67" shape-rendering="crispEdges"/>
    <path d="M138.296 229.125C134.524 227.307 134.524 221.935 138.296 220.117L233.049 174.456C236.369 172.856 240.219 175.275 240.219 178.96V270.283C240.219 273.968 236.369 276.387 233.049 274.787L138.296 229.125Z" fill="#E0E0E0" fill-opacity="0.67" shape-rendering="crispEdges"/>
    <path d="M344.449 336.414C348.222 338.231 348.223 343.604 344.451 345.422L249.708 391.101C246.388 392.701 242.537 390.283 242.536 386.598L242.517 295.275C242.517 291.59 246.367 289.17 249.687 290.77L344.449 336.414Z" fill="#E0E0E0" fill-opacity="0.67" shape-rendering="crispEdges"/>
    <path d="M136.201 345.125C132.429 343.307 132.429 337.935 136.201 336.117L230.954 290.456C234.273 288.856 238.124 291.275 238.124 294.96V386.283C238.124 389.968 234.273 392.387 230.954 390.787L136.201 345.125Z" fill="#E0E0E0" fill-opacity="0.67" shape-rendering="crispEdges"/>
    <path d="M344.449 451.414C348.222 453.231 348.223 458.604 344.451 460.422L249.708 506.101C246.388 507.701 242.537 505.283 242.536 501.598L242.517 410.275C242.517 406.59 246.367 404.17 249.687 405.77L344.449 451.414Z" fill="#E0E0E0" fill-opacity="0.67" shape-rendering="crispEdges"/>
    <path d="M136.201 460.125C132.429 458.307 132.429 452.935 136.201 451.117L230.954 405.456C234.273 403.856 238.124 406.275 238.124 409.96V501.283C238.124 504.968 234.273 507.387 230.954 505.787L136.201 460.125Z" fill="#E0E0E0" fill-opacity="0.67" shape-rendering="crispEdges"/>
    <path d="M344.449 566.414C348.222 568.231 348.223 573.604 344.451 575.422L249.708 621.101C246.388 622.701 242.537 620.283 242.536 616.598L242.517 525.275C242.517 521.59 246.367 519.17 249.687 520.77L344.449 566.414Z" fill="#E0E0E0" fill-opacity="0.67" shape-rendering="crispEdges"/>
    <path d="M136.201 575.125C132.429 573.307 132.429 567.935 136.201 566.117L230.954 520.456C234.273 518.856 238.124 521.275 238.124 524.96V616.283C238.124 619.968 234.273 622.387 230.954 620.787L136.201 575.125Z" fill="#E0E0E0" fill-opacity="0.67" shape-rendering="crispEdges"/>
  </g>
  <defs>
    <filter id="filter0_d_262_2575" x="0.517471" y="0.954102" width="605.952" height="685.649" filterUnits="userSpaceOnUse" color-interpolation-filters="sRGB">
      <feFlood flood-opacity="0" result="BackgroundImageFix"/>
      <feColorMatrix in="SourceAlpha" type="matrix" values="0 0 0 0 0 0 0 0 0 0 0 0 0 0 0 0 0 0 127 0" result="hardAlpha"/>
      <feOffset dy="4"/>
      <feGaussianBlur stdDeviation="2"/>
      <feComposite in2="hardAlpha" operator="out"/>
      <feColorMatrix type="matrix" values="0 0 0 0 0 0 0 0 0 0 0 0 0 0 0 0 0 0 0.15 0"/>
      <feBlend mode="normal" in2="BackgroundImageFix" result="effect1_dropShadow_262_2575"/>
      <feBlend mode="normal" in="SourceGraphic" in2="effect1_dropShadow_262_2575" result="shape"/>
    </filter>
  </defs>
</svg>